<svg xmlns="http://www.w3.org/2000/svg" xmlns:xlink="http://www.w3.org/1999/xlink"><symbol id="sprite-logo" fill="none" viewBox="0 0 410 404"><path fill="url(#a)" d="m399.64 59.53-184 329.02a10 10 0 0 1-17.41.07l-187.65-329.06a10 10 0 0 1 10.45-14.8l184.2 32.92a10 10 0 0 0 3.55 0l180.34-32.87a10 10 0 0 1 10.52 14.72"/><path fill="url(#b)" d="m292.96 1.57-136.16 26.69a5 5 0 0 0-4.03 4.6l-8.38 141.47a5 5 0 0 0 6.12 5.17l37.91-8.75a5 5 0 0 1 6.02 5.87l-11.26 55.15a5 5 0 0 0 6.35 5.79l23.42-7.11a5 5 0 0 1 6.35 5.8l-17.9 86.62c-1.12 5.42 6.09 8.38 9.1 3.73l2-3.1 110.95-221.43a5 5 0 0 0-5.41-7.15l-39.03 7.53a5 5 0 0 1-5.75-6.3l25.47-88.28a5 5 0 0 0-5.77-6.3"/><defs><linearGradient id="a" x1="6" x2="235" y1="33" y2="344" gradientUnits="userSpaceOnUse"><stop stop-color="#41D1FF"/><stop offset="1" stop-color="#BD34FE"/></linearGradient><linearGradient id="b" x1="194.651" x2="236.076" y1="8.818" y2="292.989" gradientUnits="userSpaceOnUse"><stop stop-color="#FFEA83"/><stop offset=".083" stop-color="#FFDD35"/><stop offset="1" stop-color="#FFA800"/></linearGradient></defs></symbol><use xlink:href="#sprite-logo" width="410" height="404"/><view id="sprite-logo-view" viewBox="0 0 410 404"/><symbol id="sprite-user" fill="none" viewBox="0 0 18 20"><path stroke="#163152" stroke-linecap="square" stroke-linejoin="round" d="M15.67 19h-13.34c-.73 0-1.33-.55-1.33-1.23a4.9 4.9 0 0 1 3.43-4.58l.41-.14a12.8 12.8 0 0 1 8.32 0l.4.14a4.9 4.9 0 0 1 3.44 4.58c0 .68-.6 1.23-1.33 1.23Zm-8.7-9.6a4.8 4.8 0 0 0 4.06 0 4.2 4.2 0 0 0 2.32-2.8l.08-.31a4.1 4.1 0 0 0-.84-3.54l-.12-.14c-.82-1.01-2.1-1.61-3.47-1.61s-2.65.6-3.47 1.6l-.12.15a4.1 4.1 0 0 0-.84 3.54l.08.32a4.2 4.2 0 0 0 2.32 2.8Z"/></symbol><use xlink:href="#sprite-user" width="18" height="20" y="404"/><view id="sprite-user-view" viewBox="0 404 18 20"/></svg>